# xmcd
#
# Track frame offsets: 
#        150
#        14170
#        29985
#        49577
#        69797
#        92185
#        117085
#        129452
#        141472
#        154495
#        172380
#        186955
#        199212
#        211720
#        224715
#        238542
#        253740
#        271965
#        287992
#        301165
#        311862
#        327957
#
# Disc length: 4505 seconds
#
# Revision: 0
# Processed by: cddbd v1.5.1PL0 Copyright (c) Steve Scherf et al.
# Submitted via: ExactAudioCopy v0.95a5
#
DISCID=66119716
DTITLE=Various Artist - Lady Sings The Blues
DYEAR=2002
DGENRE=Blues
TTITLE0=Norah Jones - Don't Know Why
TTITLE1=Dusty Springfield - The Look Of Love
TTITLE2=Randy Crawford - Rainy Night In Georgia
TTITLE3=Janis Joplin - Me And Bobby McGee
TTITLE4=Carmen McRae - Only Women Bleed
TTITLE5=Bonnie Raitt - I Can't Make You Love Me
TTITLE6=Aretha Franklin - (You Make Me Feel Like) A Natural Woman
TTITLE7=Erma Franklin - Light My Fire
TTITLE8=Dionne Warwick - Walk On By
TTITLE9=Marlena Shaw - So Far Away
TTITLE10=P.P.Arnold - Angel Of The Morning
TTITLE11=Cassandra Wilson - You Gotta Move
TTITLE12=Dinah Washington - Mad About The Boy
TTITLE13=Billie Holiday - That Ole Devil Called Love
TTITLE14=Ella Fitzgerald - Night And Day
TTITLE15=Ethel Ennis - Love For Sale
TTITLE16=Nina Simone - I Loves You Porgy
TTITLE17=Sarah Vaughan - 'Round Midnight
TTITLE18=Julie London - Cry Me A River
TTITLE19=Chris Connor - Lullaby Of Birdland
TTITLE20=Dinah Shore - My Funny Valentine
TTITLE21=Sheila Jordan - Hum Drum Blues
EXTD=
EXTT0=
EXTT1=
EXTT2=
EXTT3=
EXTT4=
EXTT5=
EXTT6=
EXTT7=
EXTT8=
EXTT9=
EXTT10=
EXTT11=
EXTT12=
EXTT13=
EXTT14=
EXTT15=
EXTT16=
EXTT17=
EXTT18=
EXTT19=
EXTT20=
EXTT21=
PLAYORDER=
